<?xml version="1.0" encoding="UTF-8" standalone="no"?>
<svg
   xmlns:dc="http://purl.org/dc/elements/1.1/"
   xmlns:cc="http://creativecommons.org/ns#"
   xmlns:rdf="http://www.w3.org/1999/02/22-rdf-syntax-ns#"
   xmlns:svg="http://www.w3.org/2000/svg"
   xmlns="http://www.w3.org/2000/svg"
   xmlns:sodipodi="http://sodipodi.sourceforge.net/DTD/sodipodi-0.dtd"
   xmlns:inkscape="http://www.inkscape.org/namespaces/inkscape"
   sodipodi:docname="ocultar.svg"
   inkscape:version="1.0 (4035a4fb49, 2020-05-01)"
   id="svg8"
   version="1.1"
   viewBox="0 0 8.4666665 8.4666655"
   height="32"
   width="32">
  <defs
     id="defs2">
    <filter
       height="1.0520188"
       y="-0.02600941"
       width="1.0724455"
       x="-0.036222755"
       id="filter1716"
       style="color-interpolation-filters:sRGB"
       inkscape:collect="always">
      <feGaussianBlur
         id="feGaussianBlur1718"
         stdDeviation="0.088581852"
         inkscape:collect="always" />
    </filter>
  </defs>
  <sodipodi:namedview
     fit-margin-bottom="0"
     fit-margin-right="0"
     fit-margin-left="0"
     fit-margin-top="0"
     units="px"
     inkscape:snap-global="false"
     inkscape:window-maximized="1"
     inkscape:window-y="-8"
     inkscape:window-x="-8"
     inkscape:window-height="706"
     inkscape:window-width="1366"
     showgrid="false"
     inkscape:document-rotation="0"
     inkscape:current-layer="layer3"
     inkscape:document-units="px"
     inkscape:cy="-72.059279"
     inkscape:cx="172.19084"
     inkscape:zoom="1"
     inkscape:pageshadow="2"
     inkscape:pageopacity="0.0"
     borderopacity="1.0"
     bordercolor="#666666"
     pagecolor="#ffffff"
     id="base" />
  <metadata
     id="metadata5">
    <rdf:RDF>
      <cc:Work
         rdf:about="">
        <dc:format>image/svg+xml</dc:format>
        <dc:type
           rdf:resource="http://purl.org/dc/dcmitype/StillImage" />
        <dc:title></dc:title>
      </cc:Work>
    </rdf:RDF>
  </metadata>
  <g
     style="opacity:1;"
     inkscape:label="Capa 3"
     id="layer3"
     inkscape:groupmode="layer">
    <path
       transform="scale(0.26458331)"
       d="M 16 1.6679688 C 13.024868 1.6679688 10.361858 2.9759023 8.5332031 5.0410156 L 5.2929688 1.8007812 L 3.171875 3.921875 L 26.328125 27.078125 L 28.449219 24.957031 L 23.091797 19.599609 C 25.255337 16.626821 25.978516 13.809447 25.978516 11.646484 C 25.978516 6.135215 21.51127 1.6679687 16 1.6679688 z M 15.986328 7.4648438 C 18.317652 7.4525225 20.194496 9.329816 20.195312 11.646484 C 20.195469 13.025454 19.522924 14.238748 18.496094 15.003906 L 12.646484 9.1542969 C 13.405533 8.1402531 14.605518 7.4721306 15.986328 7.4648438 z M 6.0507812 11.042969 C 6.0387216 11.243826 6.0214844 11.442596 6.0214844 11.646484 C 6.0214844 16.710235 8.4791106 19.600211 10.945312 22.066406 C 15.916658 27.037744 14.299507 30.332031 16 30.332031 C 17.44259 30.332031 16.513439 27.910692 19.189453 24.181641 L 6.0507812 11.042969 z "
       style="fill:#333333;fill-opacity:1;stroke:none;stroke-width:0.978898;stroke-linecap:round"
       id="path116" />
  </g>
</svg>
